<svg id="Layer_1" data-name="Layer 1" xmlns="http://www.w3.org/2000/svg" viewBox="0 0 611.57 135"><defs><style>.cls-1{fill:#3a5da9;}.cls-2{fill:#ec6955;}</style></defs><path class="cls-1" d="M160.88,58.36l-2.49-5.6a1.66,1.66,0,0,1,.72-2.15A51.63,51.63,0,0,1,170.9,46a55.83,55.83,0,0,1,14-1.77A57.33,57.33,0,0,1,199,46a47.54,47.54,0,0,1,11.71,4.61,1.66,1.66,0,0,1,.7,2.12L209,58.35a1.66,1.66,0,0,1-2.28.83A46.23,46.23,0,0,0,197,55.4a47,47,0,0,0-12.15-1.55,45.65,45.65,0,0,0-21.71,5.33A1.68,1.68,0,0,1,160.88,58.36Zm18.52,45.15V51.66A1.67,1.67,0,0,1,181.07,50h7.81a1.68,1.68,0,0,1,1.68,1.67v51.85a1.68,1.68,0,0,1-1.68,1.68h-7.81A1.68,1.68,0,0,1,179.4,103.51Z" transform="translate(-5.22 -6.5)"/><path class="cls-1" d="M235.28,105.79a28,28,0,0,1-13.35-3.05,22.21,22.21,0,0,1-8.84-8.33A23.3,23.3,0,0,1,210,82.27a23.78,23.78,0,0,1,3-12.15,22.13,22.13,0,0,1,8.41-8.33,24.31,24.31,0,0,1,12.23-3,23.73,23.73,0,0,1,11.93,3A21.45,21.45,0,0,1,253.83,70a25.31,25.31,0,0,1,3,12.62c0,.4,0,.9,0,1.5,0,.29,0,.56-.05.81a.85.85,0,0,1-.85.78H219.31a.85.85,0,0,1-.85-.85V79.42a.86.86,0,0,1,.85-.85h28.21a.85.85,0,0,1,.39,1.61h0a.84.84,0,0,1-1.23-.69,13.07,13.07,0,0,0-1.57-5.59,11.94,11.94,0,0,0-4.59-4.73,13.65,13.65,0,0,0-6.87-1.67,14.19,14.19,0,0,0-6.91,1.67,11.45,11.45,0,0,0-4.68,4.77,15,15,0,0,0-1.63,7.12v1.72a14.27,14.27,0,0,0,1.85,7.3A12.53,12.53,0,0,0,227.56,95a17.19,17.19,0,0,0,8,1.76,18,18,0,0,0,7-1.28,16.24,16.24,0,0,0,4.86-3.15.86.86,0,0,1,1.23,0l4.74,5.45a.84.84,0,0,1,0,1.14A20.61,20.61,0,0,1,246,103.9,28.35,28.35,0,0,1,235.28,105.79Z" transform="translate(-5.22 -6.5)"/><path class="cls-1" d="M267.22,103.78v-43a1.41,1.41,0,0,1,1.4-1.41H276a1.41,1.41,0,0,1,1.4,1.41V71.62l-1.54-3a1.41,1.41,0,0,1,0-1.35,16.13,16.13,0,0,1,6.36-6.11,21,21,0,0,1,10.18-2.41,19.51,19.51,0,0,1,11.16,3.18,14.46,14.46,0,0,1,5.4,7,1.4,1.4,0,0,1-1.81,1.81h0a1.41,1.41,0,0,1-.75-2,18.08,18.08,0,0,1,6.6-6.79A22.23,22.23,0,0,1,325,58.74a21.36,21.36,0,0,1,9.75,2.15,15.27,15.27,0,0,1,6.65,6.61,24,24,0,0,1,2.4,11.42v24.86a1.41,1.41,0,0,1-1.4,1.41h-7.84a1.41,1.41,0,0,1-1.4-1.41V80.29q0-6.09-2.71-9.1t-7.68-3a12.29,12.29,0,0,0-6.22,1.54,10.39,10.39,0,0,0-4.21,4.59,17.18,17.18,0,0,0-1.5,7.6v21.86a1.41,1.41,0,0,1-1.41,1.41h-7.83a1.41,1.41,0,0,1-1.41-1.41V80.29q0-6.09-2.7-9.1c-1.8-2-4.37-3-7.68-3a12.33,12.33,0,0,0-6.23,1.54,10.43,10.43,0,0,0-4.2,4.59,17,17,0,0,0-1.51,7.6v21.86a1.41,1.41,0,0,1-1.4,1.41h-7.84A1.41,1.41,0,0,1,267.22,103.78Z" transform="translate(-5.22 -6.5)"/><path class="cls-1" d="M357.61,119.88V61.31a2,2,0,0,1,2-2h6.29a2,2,0,0,1,2,2v8.85l-.43,12.09a1.48,1.48,0,0,0,0,.21l.84,12a.66.66,0,0,1,0,.14v25.27a2,2,0,0,1-2,2h-6.72A2,2,0,0,1,357.61,119.88Zm25.33-14.09a20.76,20.76,0,0,1-10.22-2.53,17.88,17.88,0,0,1-7.21-7.77q-2.65-5.23-2.66-13.22T365.38,69a17,17,0,0,1,7.17-7.72,21.29,21.29,0,0,1,10.39-2.54,24.15,24.15,0,0,1,11.93,2.92,21.59,21.59,0,0,1,8.29,8.24,24.47,24.47,0,0,1,3,12.37,24.38,24.38,0,0,1-3,12.4,21.62,21.62,0,0,1-8.29,8.2A24,24,0,0,1,382.94,105.79Zm-1.29-9.1a13.51,13.51,0,0,0,7-1.8,13.15,13.15,0,0,0,4.85-5.07,16.84,16.84,0,0,0,0-15.15,12.84,12.84,0,0,0-4.85-5,14.54,14.54,0,0,0-13.87,0,12.73,12.73,0,0,0-4.89,5,16.84,16.84,0,0,0,0,15.15,13,13,0,0,0,4.89,5.07A13.4,13.4,0,0,0,381.65,96.69Z" transform="translate(-5.22 -6.5)"/><path class="cls-1" d="M416.5,103.18V43.5a2,2,0,0,1,2-2h6.63a2,2,0,0,1,2,2v59.68a2,2,0,0,1-2,2h-6.63A2,2,0,0,1,416.5,103.18Z" transform="translate(-5.22 -6.5)"/><path class="cls-1" d="M455.14,105.79a21.63,21.63,0,0,1-9-1.76,13.84,13.84,0,0,1-6-4.9,12.32,12.32,0,0,1-2.11-7.08,13.31,13.31,0,0,1,1.85-7A12.4,12.4,0,0,1,446,80.21a28.57,28.57,0,0,1,11.16-1.81h11a2.27,2.27,0,0,1,2.27,2.27v2.59a2.27,2.27,0,0,1-2.27,2.27H457.88q-5.4,0-7.34,1.76a5.72,5.72,0,0,0-1.93,4.42,5.39,5.39,0,0,0,2.32,4.55A10.65,10.65,0,0,0,457.37,98a14,14,0,0,0,7.08-1.81,10.43,10.43,0,0,0,2.11-1.59,2.3,2.3,0,0,1,3.78,1.12l.22.83a2.21,2.21,0,0,1-.1,1.48,12,12,0,0,1-5.19,5.55A20.54,20.54,0,0,1,455.14,105.79Zm14.42-2.87V96.13a2.33,2.33,0,0,0-.08-.59l-.36-1.31a2.33,2.33,0,0,1-.08-.59V77.72a9.43,9.43,0,0,0-2.87-7.34q-2.88-2.62-8.72-2.62A24,24,0,0,0,450,69a21,21,0,0,0-4.44,2,2.24,2.24,0,0,1-3.11-.9l-2-3.77a2.28,2.28,0,0,1,.79-3,28.14,28.14,0,0,1,7.09-3.1,38,38,0,0,1,10.56-1.46q10,0,15.45,4.81t5.41,14.77v24.6a2.27,2.27,0,0,1-2.27,2.27h-5.6A2.27,2.27,0,0,1,469.56,102.92Z" transform="translate(-5.22 -6.5)"/><path class="cls-1" d="M507.16,105.79a21.63,21.63,0,0,1-9-1.76,13.84,13.84,0,0,1-6-4.9,12.32,12.32,0,0,1-2.11-7.08,13.31,13.31,0,0,1,1.85-7A12.44,12.44,0,0,1,498,80.21a28.64,28.64,0,0,1,11.16-1.81h11.13a2.19,2.19,0,0,1,2.18,2.18v2.77a2.19,2.19,0,0,1-2.18,2.18H509.91q-5.42,0-7.34,1.76a5.73,5.73,0,0,0-1.94,4.42A5.41,5.41,0,0,0,503,96.26,10.67,10.67,0,0,0,509.39,98a14,14,0,0,0,7.08-1.81,10.09,10.09,0,0,0,2.14-1.61,2.19,2.19,0,0,1,3.69.93l.29,1.07a2.16,2.16,0,0,1-.1,1.42,12,12,0,0,1-5.2,5.58A20.54,20.54,0,0,1,507.16,105.79ZM521.58,103V96.12a2.24,2.24,0,0,0-.08-.57l-.36-1.33a2.17,2.17,0,0,1-.07-.57V77.72a9.4,9.4,0,0,0-2.88-7.34q-2.88-2.62-8.71-2.62A24,24,0,0,0,502,69a21.24,21.24,0,0,0-4.47,2,2.21,2.21,0,0,1-3.08-.89l-2.08-3.86a2.18,2.18,0,0,1,.75-2.89,28.19,28.19,0,0,1,7.16-3.14,38.1,38.1,0,0,1,10.56-1.46q10,0,15.45,4.81t5.41,14.77V103a2.19,2.19,0,0,1-2.18,2.18h-5.77A2.19,2.19,0,0,1,521.58,103Z" transform="translate(-5.22 -6.5)"/><path class="cls-1" d="M545.44,102.63V61.9A2.56,2.56,0,0,1,548,59.34h5.11a2.56,2.56,0,0,1,2.55,2.56V72l-.89-2.73a2.61,2.61,0,0,1,.18-2,14.24,14.24,0,0,1,5.95-6,20.72,20.72,0,0,1,8.17-2.33,2.54,2.54,0,0,1,2.73,2.55V69c-.4-.06-.8-.1-1.2-.13s-.78,0-1.12,0q-6.18,0-9.78,3.52T556.09,83v19.59a2.56,2.56,0,0,1-2.56,2.56H548A2.56,2.56,0,0,1,545.44,102.63Z" transform="translate(-5.22 -6.5)"/><path class="cls-1" d="M592.23,105.79a21.59,21.59,0,0,1-9-1.76,13.81,13.81,0,0,1-6-4.9,12.39,12.39,0,0,1-2.1-7.08,13.3,13.3,0,0,1,1.84-7,12.47,12.47,0,0,1,6.06-4.89,28.57,28.57,0,0,1,11.16-1.81H604.9A2.61,2.61,0,0,1,607.51,81v1.89a2.61,2.61,0,0,1-2.61,2.62H595c-3.61,0-6.05.59-7.34,1.76a5.72,5.72,0,0,0-1.93,4.42A5.39,5.39,0,0,0,588,96.26,10.63,10.63,0,0,0,594.46,98a14,14,0,0,0,7.09-1.81,10.9,10.9,0,0,0,1.75-1.25,2.61,2.61,0,0,1,4.26,1.27l.06.23a2.43,2.43,0,0,1-.12,1.7,12,12,0,0,1-5.14,5.44A20.51,20.51,0,0,1,592.23,105.79Zm14.43-3.22V96.18a2.74,2.74,0,0,0-.1-.69l-.33-1.21a2.72,2.72,0,0,1-.09-.69V77.72a9.4,9.4,0,0,0-2.88-7.34c-1.91-1.75-4.82-2.62-8.71-2.62a24,24,0,0,0-7.47,1.2,21.09,21.09,0,0,0-4.14,1.83,2.59,2.59,0,0,1-3.58-1l-1.71-3.17a2.61,2.61,0,0,1,.91-3.47,28.72,28.72,0,0,1,6.81-2.92,38,38,0,0,1,10.55-1.46q10.05,0,15.46,4.81t5.4,14.77v24.25a2.61,2.61,0,0,1-2.61,2.62h-4.9A2.61,2.61,0,0,1,606.66,102.57Z" transform="translate(-5.22 -6.5)"/><path class="cls-2" d="M122.72,6.5h-100A17.49,17.49,0,0,0,5.22,24V124a17.5,17.5,0,0,0,17.5,17.5h100a17.51,17.51,0,0,0,17.5-17.5V24A17.5,17.5,0,0,0,122.72,6.5ZM85.84,40.88c-2.94,1.21-4.57,3.88-4,6.55l19.74,89.83L75.07,55.06a2.32,2.32,0,0,0-4.45.08L47.26,137.26l16.51-90c.47-2.56-1.11-5.08-3.92-6.23L11.3,21,70.51,31.72a12.62,12.62,0,0,0,4.42,0L134.13,21Z" transform="translate(-5.22 -6.5)"/></svg>